<?xml version="1.0" encoding="UTF-8" standalone="no"?>
<!DOCTYPE svg PUBLIC "-//W3C//DTD SVG 1.1//EN" "http://www.w3.org/Graphics/SVG/1.1/DTD/svg11.dtd">
<svg width="100%" height="100%" viewBox="0 0 480 480" version="1.1" xmlns="http://www.w3.org/2000/svg" xmlns:xlink="http://www.w3.org/1999/xlink" xml:space="preserve" xmlns:serif="http://www.serif.com/" style="fill-rule:evenodd;clip-rule:evenodd;stroke-linejoin:round;stroke-miterlimit:2;">
    <g transform="matrix(1,0,0,1,0,-572.36)">
        <rect x="16" y="588.36" width="448" height="448" style="fill:white;"/>
        <g transform="matrix(8.545,0,0,8.545,-786.19,-1949.8)">
            <path d="M104.41,321.21C104.424,318.825 102.505,316.929 100.12,316.929L93.877,316.929L93.877,319.855L100.12,319.855C100.926,319.855 101.601,320.439 101.601,321.244L101.601,325.486C101.601,326.291 100.926,326.994 100.12,326.994L93.877,326.994L93.877,329.802L100.12,329.802C102.505,329.802 104.41,327.871 104.41,325.486L104.41,323.505C114.276,323.646 117.147,326.212 120.287,328.957C123.311,331.602 126.702,334.444 135.539,334.514L135.539,335.486C135.54,337.871 137.494,339.867 139.878,339.867L146.306,339.867L146.306,336.824L139.878,336.824C139.073,336.824 138.465,336.291 138.465,335.486L138.465,331.244C138.465,330.439 139.073,329.802 139.878,329.802L146.306,329.802L146.306,326.994L139.878,326.994C137.494,326.994 135.54,328.859 135.539,331.244L135.539,332.249C127.188,332.221 124.816,329.906 121.779,327.25C119.187,324.984 116.142,322.492 109.433,321.586C109.491,321.535 109.545,321.487 109.601,321.435C110.893,320.251 111.59,318.82 112.271,317.584C112.953,316.348 113.594,315.317 114.644,314.596C115.496,314.011 116.708,313.575 118.57,313.494L118.57,314.486C118.571,316.871 120.494,318.919 122.879,318.919L140.121,318.919C142.505,318.919 144.433,316.871 144.433,314.486L144.433,310.244C144.433,307.859 142.505,305.929 140.121,305.929L122.879,305.929C120.494,305.929 118.569,307.859 118.57,310.244L118.571,311.228C116.323,311.318 114.62,311.863 113.363,312.726C111.838,313.773 110.997,315.203 110.287,316.49C109.577,317.777 108.976,318.931 108.068,319.763C107.278,320.488 106.185,321.048 104.41,321.256L104.41,321.21ZM122.878,308.854L140.12,308.854C140.925,308.854 141.507,309.439 141.507,310.244L141.507,314.486C141.507,315.291 140.925,315.876 140.12,315.876L122.878,315.876C122.073,315.876 121.379,315.291 121.379,314.486L121.379,310.244C121.379,309.439 122.073,308.854 122.878,308.854Z" style="fill:white;fill-rule:nonzero;"/>
        </g>
    </g>
</svg>
