<?xml version="1.0" encoding="UTF-8" standalone="no"?>
<!DOCTYPE svg PUBLIC "-//W3C//DTD SVG 1.1//EN" "http://www.w3.org/Graphics/SVG/1.1/DTD/svg11.dtd">
<svg width="100%" height="100%" viewBox="0 0 24 24" version="1.1" xmlns="http://www.w3.org/2000/svg" xmlns:xlink="http://www.w3.org/1999/xlink" xml:space="preserve" xmlns:serif="http://www.serif.com/" style="fill-rule:evenodd;clip-rule:evenodd;stroke-linejoin:round;stroke-miterlimit:2;">
    <path d="M20.22,2L7.78,2C6.8,2 6,2.8 6,3.78L6,16.22C6,17.2 6.8,18 7.78,18L20.22,18C21.2,18 22,17.21 22,16.22L22,3.78C22,2.8 21.2,2 20.22,2M11.06,15L9,15L9,12.94L15.06,6.88L17.12,8.94L11.06,15M18.7,7.35L17.7,8.35L15.65,6.3L16.65,5.3C16.86,5.08 17.21,5.08 17.42,5.3L18.7,6.58C18.92,6.79 18.92,7.14 18.7,7.35M4,6L2,6L2,20C2,21.11 2.9,22 4,22L18,22L18,20L4,20L4,6Z" style="fill:white;fill-rule:nonzero;"/>
</svg>
