<?xml version="1.0" encoding="UTF-8" standalone="no"?>
<!DOCTYPE svg PUBLIC "-//W3C//DTD SVG 1.1//EN" "http://www.w3.org/Graphics/SVG/1.1/DTD/svg11.dtd">
<svg width="100%" height="100%" viewBox="0 0 24 24" version="1.1" xmlns="http://www.w3.org/2000/svg" xmlns:xlink="http://www.w3.org/1999/xlink" xml:space="preserve" xmlns:serif="http://www.serif.com/" style="fill-rule:evenodd;clip-rule:evenodd;stroke-linejoin:round;stroke-miterlimit:2;">
    <g transform="matrix(0.911193,0,0,0.900651,1.11973,1.20335)">
        <path d="M15.84,10.2L14.83,11.21L12.76,9.18L13.77,8.16C13.97,7.95 14.31,7.94 14.55,8.16L15.84,9.41C16.05,9.62 16.06,9.96 15.84,10.2M8,13.91L12.17,9.72L14.24,11.8L10.08,16L8,16L8,13.91M13,2L13,4C17.39,4.54 20.5,8.53 19.96,12.92C19.5,16.56 16.64,19.43 13,19.88L13,21.88C18.5,21.28 22.45,16.34 21.85,10.85C21.33,6.19 17.66,2.5 13,2M11,2C9.04,2.18 7.19,2.95 5.67,4.2L7.1,5.74C8.22,4.84 9.57,4.26 11,4.06L11,2.06M4.26,5.67C3,7.19 2.24,9.04 2.05,11L4.05,11C4.24,9.58 4.8,8.23 5.69,7.1L4.26,5.67M2.06,13C2.26,14.96 3.03,16.81 4.27,18.33L5.69,16.9C4.81,15.77 4.24,14.42 4.06,13L2.06,13M7.06,18.37L5.67,19.74C7.18,21 9.04,21.79 11,22L11,20C9.58,19.82 8.23,19.25 7.1,18.37L7.06,18.37Z" style="fill:white;fill-rule:nonzero;"/>
    </g>
</svg>
